<svg xmlns="http://www.w3.org/2000/svg" width="24.255" height="22.291" viewBox="0 0 24.255 22.291"><defs><style>.a{fill:#fff;}</style></defs><g transform="translate(0 -22.964)"><g transform="translate(0 22.964)"><path class="a" d="M23.965,28.078,19.14,23.254a.991.991,0,0,0-1.4,0l-.864.865a.99.99,0,0,0,0,1.4l.717.717-.835.835a9.662,9.662,0,0,0-9.261,0l-.833-.832.717-.717a.99.99,0,0,0,0-1.4l-.864-.865a.991.991,0,0,0-1.4,0L.291,28.078a.99.99,0,0,0,0,1.4l.864.865a.992.992,0,0,0,1.4,0l.787-.787.7.7a9.682,9.682,0,1,0,16.169,0l.7-.7.787.787a.992.992,0,0,0,1.4,0l.865-.865a.991.991,0,0,0,0-1.4ZM12.124,42.907a7.335,7.335,0,1,1,7.336-7.335A7.344,7.344,0,0,1,12.124,42.907Z" transform="translate(0 -22.964)"/><path class="a" d="M184.938,214.675h-2.207v-2.208a1.174,1.174,0,0,0-2.347,0v2.208h-2.208a1.173,1.173,0,1,0,0,2.347h2.208v2.208a1.174,1.174,0,0,0,2.347,0v-2.208h2.207a1.173,1.173,0,1,0,0-2.347Z" transform="translate(-169.432 -203.24)"/></g></g></svg>