<svg xmlns="http://www.w3.org/2000/svg" width="19.86" height="17.731" viewBox="0 0 19.86 17.731">
  <g id="reply" transform="translate(0 -27.417)">
    <path id="Path_1593" data-name="Path 1593" d="M19.272,35.43q-1.8-4.466-9.7-4.466H7.093V28.126a.705.705,0,0,0-1.208-.5L.211,33.3a.7.7,0,0,0,0,1l5.674,5.674a.709.709,0,0,0,1.208-.5V36.638H9.575q1.086,0,1.945.066a14.022,14.022,0,0,1,1.707.238,6.335,6.335,0,0,1,1.474.471,5.218,5.218,0,0,1,1.169.77,3.861,3.861,0,0,1,.887,1.119,6.031,6.031,0,0,1,.537,1.535,9.44,9.44,0,0,1,.194,2.006q0,.609-.055,1.363a2.271,2.271,0,0,1-.028.26,2.281,2.281,0,0,0-.028.294.414.414,0,0,0,.094.277.324.324,0,0,0,.261.111.379.379,0,0,0,.31-.188,1.267,1.267,0,0,0,.144-.244q.067-.144.15-.332c.056-.126.094-.214.116-.266a13.306,13.306,0,0,0,1.407-5A10.09,10.09,0,0,0,19.272,35.43Z" transform="translate(0 0)" fill="#fff"/>
  </g>
</svg>
