<svg xmlns="http://www.w3.org/2000/svg" width="14.843" height="14.842" viewBox="0 0 14.843 14.842">
  <path id="Union_3" data-name="Union 3" d="M-993.75,2994.5a.566.566,0,0,1-.566-.566.567.567,0,0,1,.566-.566h6.683a.566.566,0,0,1,.566.566.566.566,0,0,1-.566.566Zm-6.683,0a.566.566,0,0,1-.566-.566v-3.341a.568.568,0,0,1,.166-.4l10.025-10.025a.566.566,0,0,1,.8,0l3.343,3.342a.567.567,0,0,1,0,.8l-10.026,10.025a.564.564,0,0,1-.4.165Zm3.107-1.133,9.46-9.459-2.541-2.541-2.822,2.822,2.8-2.679,2.537,2.417-9.44,9.44Zm-2.54,0h.493l-.493-.062Zm8.345-1.094a.566.566,0,0,1-.566-.566.566.566,0,0,1,.566-.566h4.455a.566.566,0,0,1,.566.566.566.566,0,0,1-.566.566Zm2.228-2.228a.566.566,0,0,1-.567-.566.566.566,0,0,1,.567-.566h2.227a.566.566,0,0,1,.566.566.566.566,0,0,1-.566.566Z" transform="translate(1001.15 -2979.807)" fill="#fff" stroke="#fff" stroke-width="0.3"/>
</svg>
