<?xml version="1.0" encoding="utf-8"?>
<!-- Generator: Adobe Illustrator 23.0.0, SVG Export Plug-In . SVG Version: 6.00 Build 0)  -->
<svg version="1.1" id="Layer_1" xmlns="http://www.w3.org/2000/svg" xmlns:xlink="http://www.w3.org/1999/xlink" x="0px" y="0px"
	 viewBox="0 0 798.6 263.1" style="enable-background:new 0 0 798.6 263.1;" xml:space="preserve">
<style type="text/css">
	.st0{fill-rule:evenodd;clip-rule:evenodd;fill:#1EA1DB;}
	.st1{fill-rule:evenodd;clip-rule:evenodd;fill:#333132;}
	.st2{fill-rule:evenodd;clip-rule:evenodd;fill:#13A1DB;}
	.st3{opacity:0.6;fill:#05A1DC;}
	.st4{fill:#1E4995;}
	.st5{fill:#1EA1DB;}
	.st6{fill:#FFFFFF;}
	.st7{fill:#333132;}
</style>
<g id="Original_-_Global_18_">
	<path class="st0" d="M458.8,73.1l0,0.1c-0.9,4.9-1.9,9.7-2.8,14.6c-3.5,20-7.1,40.1-10.6,60.1c-0.3,1.7-0.6,3.4-0.9,5.2
		c-7.1,0-14.1,0-21.3,0C429.8,116,436.3,79,442.8,42c7.1,0,14.1,0,21.3,0c-0.6,3.5-1.2,6.9-1.8,10.3C461.2,59.2,460,66.1,458.8,73.1
		z"/>
	<path class="st0" d="M170.5,42c7.1,0,14.1,0,21.3,0c-6.5,37.1-13.1,74-19.6,111.1c-7.1,0-14.1,0-21.3,0
		C157.4,116,163.9,79,170.5,42z"/>
	<path class="st0" d="M133.5,43.2c-11.4-10.1-24.9-15.5-40.2-16.4c-2.6-0.2-5.6-0.2-8,0C67.2,28,51.9,35.3,39.6,48.7
		C29.3,60,23.5,73.4,22.3,88.6c-0.3,3.6-0.3,6.3,0,10.5c0.3,5,1.3,9.8,2.7,14.6c9.9,32.4,41.9,52.1,75.7,46.6
		c30.9-5,55.1-32.3,55.9-63.5C157.2,75.4,149.6,57.4,133.5,43.2z M103,155.1c-36.5,8.1-65.7-14.6-73.6-42.8
		c-9.4-33.5,8-64.6,37.5-75.5c32.2-12,62.9,4.3,75.4,27.1c-2.4,1.4-4.7,2.7-7,4.1c-16.4-27-49.2-33.4-72.5-20.1
		c-22.9,13.1-34.3,39.1-24.1,66.1c9,24,33.9,39.5,62.6,33c24.6-5.6,40.3-28.7,40.7-48c-9.2,0-18.4,0-27.6,0c-9.1,0-18.3,0-27.6,0
		c0-2.8,0-5.4,0-8.2c21.3,0,42.5,0,63.8,0C153,118.6,134.3,148.1,103,155.1z"/>
	<path class="st0" d="M350.8,94.5c-1.1-11.9-9-20.6-20.1-23c-9.6-2.1-18.5,0-26.5,5.6c-2,1.4-3.8,2.9-5.9,4.6
		c2.4-13.4,4.7-26.5,7-39.7c-7.2,0-14.2,0-21.3,0c-6.5,37.1-13.1,74.1-19.6,111.1c6.7,0,13.3,0,19.8,0c0.7-3.8,1.3-7.5,2.1-11.6
		c0.5,0.8,0.8,1.3,1.2,1.8c5.3,7.9,12.6,12.1,22.2,12c12-0.2,21.5-6,28.7-15.1C348.8,126.9,352.3,111.2,350.8,94.5z M323,128
		c-3.5,6-8.6,10.1-15.9,10.3c-7.9,0.3-14-5.2-14.9-13.1c-0.2-1.5-0.3-3.1-0.4-4.6c0.7-9.2,1.8-18.3,7.8-25.8
		c3.6-4.5,8.3-7.3,14.2-7.7c8.9-0.6,14.7,4.7,15.2,14.5C329.4,110.9,327.8,119.9,323,128z"/>
	<path class="st0" d="M418.1,127.9c2-12.2,5-24.2,6.2-36.6c0.8-8-2-13.6-9.3-17.2c-4.6-2.3-9.6-2.9-14.6-3.2
		c-8.6-0.5-17.2-0.3-25.4,2.9c-9.4,3.6-15.2,10.9-19.4,20c6.4,1.2,12.5,2.3,18.5,3.4c0.2-0.1,0.3-0.2,0.3-0.2
		c0.3-0.4,0.5-0.9,0.8-1.3c2.2-3.7,5-6.8,9.4-7.9c4.5-1.1,9-0.9,13.5,0.3c3.1,0.8,4.6,3,4.8,6.2c0.1,2.1-0.2,4.2-0.8,6.5
		c-1.9,0.6-3.8,1.3-5.8,1.7c-8.8,2-17.6,3.7-26.3,5.9c-11,2.7-19.3,8.8-22.6,20.2c-4.1,14,3.2,24.9,17.6,26.5
		c10.7,1.2,20.1-2.2,28.5-8.5c0.8-0.6,1.6-1.2,2.5-1.9c0.5,3,0.9,5.7,1.3,8.4c7.1,0,14.1,0,21.1,0c-1.2-4.2-2-8.3-1.8-12.5
		C416.8,136.3,417.5,132.1,418.1,127.9z M394.3,132.5c-4.4,5.2-10.1,8-17,7.7c-3.9-0.1-6.9-2-8.3-5.8c-1.4-3.8-0.6-7.4,2.1-10.4
		c2.3-2.6,5.3-3.8,8.5-4.6c6.6-1.6,13.3-3.2,20.3-4.8C398.3,120.8,398.5,127.4,394.3,132.5z"/>
	<path class="st0" d="M268.2,101.8c-0.4-11.3-5.4-20.4-15.2-26.2c-10.8-6.3-22.4-6.2-34-2.7c-21.3,6.3-35.3,26.2-35.3,49.7
		c0,15.6,6.8,25.6,20.9,30.5c8.9,3.1,17.9,3,26.9,0.6C253.7,147.5,269,126.1,268.2,101.8z M246.1,106.1c-0.4,8.9-2.2,17.4-8.3,24.3
		c-3.9,4.4-8.8,7.2-14.8,7.6c-9.3,0.7-16.4-5-17.2-14.3c-0.9-11.1,1.4-21.5,9.7-29.6c4.7-4.6,10.4-6.9,17.1-5.9
		c7.9,1.1,13,7,13.4,15C246.2,104.2,246.1,105.2,246.1,106.1z"/>
</g>
<g id="White_Line_18_">
	<path class="st1" d="M137.6,220.8c-0.9-15.1,9.3-23.8,18.4-25.3c0.5-3,4.5-13.5,14.2-20c-15.9,0.7-30.8,1.5-46.7,2.2
		c-17.7,0.8-35.3,1.6-53,2.5c-7.3,0.3-14.7,0.7-22.4,1c24.2,16.8,48,33.4,71.9,49.9c2.9-1.4,5.8-2.8,8.7-4.2c3.4-1.5,5.8-3,9.3-4.4
		C137.7,222,137.6,221.4,137.6,220.8z"/>
	<path class="st1" d="M399.5,164.8c-17.5,0.8-34.9,1.6-52.4,2.5c-19.8,0.9-39.5,1.8-59.3,2.8c-17.5,0.8-35,1.6-52.6,2.5
		c-9.8,0.5-18.5,0.9-28.3,1.4c4.7,2.6,9.5,7,13.4,14.3c5.7,0.1,10.9,1.4,15.1,3.9c8.2-2,15.4-3.9,23.6-5.7
		c18.5-4,37.1-7.5,55.8-10.4c13.3-2,26.7-3.9,40.1-5.6c12.1-1.5,24.2-2.6,36.3-3.8c13.5-1.3,27-2.4,40.5-3.1c0-0.1,0-0.1,0-0.2
		C421,163.9,410.3,164.3,399.5,164.8z"/>
</g>
<g id="Cloud_28_">
	<path class="st2" d="M161.5,200.3c0.7-4.9,6.1-24.5,28.4-24.8c0,0,16.7-2.4,26,17.9c14.9-1,25.5,7.1,25.5,22.8
		c0,15-12.6,21.8-21.4,21.8c0,0-53.8,0-58.3,0c-7.1,0-17.3-6.8-17.3-19.3C144.4,206.3,153.9,200,161.5,200.3z"/>
</g>
<polygon class="st3" points="470.8,198.4 484,122.5 460.8,122.5 464.5,100.8 532.6,100.8 528.8,122.5 505.6,122.5 492.4,198.4 "/>
<path class="st3" d="M697.6,199.1l16.8-97.5h43.2c3.9,0,7.5,1,10.6,3.2c5.3,3.7,9.4,11.2,7.8,28.2c-2.9,30.3-20.8,31.8-20.8,31.8
	L766,199h-21.6l-15.2-50h14.7c5.6,0,11.2-5.8,12.5-13c0-0.1,0-0.2,0.1-0.3c1-6-0.9-9.2-2.9-10.8c-1.4-1.2-3.2-1.7-5-1.7h-18
	l-13.1,75.9C717.4,199.1,698.4,199.1,697.6,199.1z"/>
<polygon class="st4" points="469,198.4 482.2,122.5 459,122.5 462.8,100.8 530.8,100.8 527,122.5 503.8,122.5 490.7,198.4 "/>
<path class="st4" d="M695.8,199.1l16.8-97.5h43.2c3.9,0,7.5,1,10.6,3.2c5.3,3.7,9.4,11.2,7.8,28.2c-2.9,30.3-20.8,31.8-20.8,31.8
	l10.7,34.3h-21.6l-15.2-50h14.7c5.6,0,11.2-5.8,12.5-13c0-0.1,0-0.2,0.1-0.3c1-6-0.9-9.2-2.9-10.8c-1.4-1.2-3.2-1.7-5-1.7h-18
	l-13.1,75.9C715.7,199.1,696.7,199.1,695.8,199.1z"/>
<path class="st3" d="M575,184.3c0.1-0.5,0.2-1.1,0.3-1.6c0.3-1.4,0.8-2.8,1.4-4.2c0.1-0.2,0.2-0.4,0.3-0.6c0.9-1.8,2.1-3.6,3.5-5.2
	l0.1-0.1c0.9-1,2.6-2.5,3.7-3.3l-8.8-68.4h-25.9l-47.2,97.6h23.4l7.9-17.7h27.7l1.8,17.7h13.9C574.9,194.7,574.1,189.7,575,184.3z
	 M542.8,159l14.5-34.1l1.8,34.1H542.8z"/>
<path class="st4" d="M575,184.3c0.1-0.5,0.2-1.1,0.3-1.6c0.3-1.4,0.8-2.8,1.4-4.2c0.1-0.2,0.2-0.4,0.3-0.6c0.9-1.8,2.1-3.6,3.5-5.2
	l0.1-0.1c0.7-0.7,1.4-1.4,2.1-2l-9-69.7h-25.9l-47.2,97.6h23.4l7.9-17.7h27.7l1.8,17.7h15.6C574.9,194.7,574.1,189.7,575,184.3z
	 M541,159l14.5-34.1l1.8,34.1H541z"/>
<polygon class="st3" points="683.4,100.8 676.7,139.2 653.4,139.2 660.1,100.8 637.7,100.8 622.7,186.8 630,198.4 643.2,198.4 
	649.8,160 673.1,160 666.5,198.4 688.9,198.4 705.8,100.8 "/>
<polygon class="st4" points="681.6,100.8 674.9,139.2 651.7,139.2 658.3,100.8 635.9,100.8 621,186.8 628.2,198.4 641.4,198.4 
	648.1,160 671.3,160 664.7,198.4 687.1,198.4 704,100.8 "/>
<path class="st5" d="M615.3,188.9l3.5-18.6c-2.4,5.1-5.1,9.1-7.6,12.1c-0.7-1.2-5.3-8.6-5.3-8.6c1.7-1.4,3.5-2.8,5.1-4.3
	c3-2.9,6.8-7.7,5.3-13.2c-0.3-1.2-0.9-2.3-1.8-3.4c-1.9-2.2-4.8-2.9-7.3-3.1c-3-0.3-6-0.2-9,0.6c-1.8,0.5-3.3,1.2-4.5,2.1
	c-1.7,1.3-3.6,3-4.6,5.3c-0.9,2.1-1.2,4.6-0.9,7c0.1,1,0.3,2,0.7,2.8c0.8,1.9,2.3,3.5,4.2,4.4c-0.4,0.1-0.7,0.2-0.9,0.3
	c-0.3,0.1-0.6,0.3-1,0.4c-1.3,0.6-2.6,1.3-3.7,2.2c-1.2,0.9-2.3,1.9-3.4,3.1c-1,1.2-1.9,2.4-2.5,3.7c-0.1,0.1-0.1,0.3-0.2,0.4
	c-0.4,0.8-0.7,1.7-0.9,2.6c-0.1,0.3-0.1,0.6-0.2,0.9c-0.6,3.8-0.2,7.6,2.3,10.1c1.8,1.8,4.2,2.5,6.4,2.9c2.5,0.5,5.1,0.6,7.6,0.4
	c0,0,6.8-0.4,10.8-3.4c0,0,1.6,2.6,1.6,2.6h12L615.3,188.9z M598.2,160.7c0.2-2.6,1.8-5.1,4.6-5.2c0.6,0,1.2,0.1,1.7,0.2
	c1.1,0.4,2.1,1.2,2.4,2.3c0.4,1.4,0.1,2.9-0.5,4.1c-0.6,1.2-1.5,2.2-2.5,3.1c-0.5,0.4-1,0.9-1.6,1.2c-0.1,0.1-1.3,0.9-1.4,0.8
	l-0.2-0.2c-0.4-0.4-0.7-0.8-1-1.3c-0.3-0.5-0.6-0.9-0.8-1.4c-0.2-0.5-0.4-1-0.6-1.5C598.2,162.2,598.1,161.4,598.2,160.7z
	 M594.1,191.5c-0.7-0.2-1.3-0.4-1.8-0.8c-0.6-0.4-1-0.9-1.3-1.4c-1-1.6-0.6-4,0.2-5.5c0.3-0.7,0.8-1.3,1.3-2c0.7-0.8,1.5-1.5,2.4-2
	c0.4-0.3,0.9-0.6,1.4-0.8c0.2-0.1,1-0.4,1.1-0.5c0,0,0.1,0.1,0.1,0.1c0.1,0.1,6.1,10.3,6.1,10.3l0.3,0.5c0,0-0.3,0.3-0.3,0.3
	l-0.3,0.3C600.6,192.2,597.1,192.3,594.1,191.5z"/>
<path class="st6" d="M583.7,170.7"/>
<g>
	<path class="st7" d="M275.9,226.5c-0.3,1.4-0.9,2.5-1.7,3.2c-0.8,0.7-1.9,1.1-3.1,1.1c-1,0-2-0.3-2.8-0.8c-0.9-0.5-1.5-1.3-1.9-2.4
		c-0.4-1.1-0.6-2.4-0.6-3.8c0-1.1,0.2-2.2,0.5-3.3c0.3-1,1-1.9,1.8-2.5c0.9-0.6,1.9-0.9,3.2-0.9c1.1,0,2,0.3,2.8,0.8
		c0.7,0.5,1.3,1.4,1.7,2.7l0.1,0.3l3.1-0.7l-0.1-0.4c-0.5-1.7-1.4-3.1-2.7-4c-1.3-1-2.9-1.4-4.7-1.4c-1.6,0-3.2,0.4-4.5,1.1
		c-1.4,0.8-2.4,1.9-3.2,3.3c-0.7,1.4-1.1,3.1-1.1,5c0,1.8,0.3,3.4,1,4.9c0.7,1.6,1.6,2.8,2.9,3.6c1.3,0.8,2.9,1.2,4.9,1.2
		c1.9,0,3.6-0.5,5-1.6c1.4-1.1,2.3-2.6,2.8-4.7l0.1-0.4l-3.1-0.8L275.9,226.5z"/>
	<rect x="284.3" y="214.6" class="st7" width="2.9" height="18.6"/>
	<path class="st7" d="M299,219.2c-1.7,0-3.1,0.5-4.3,1.5c-1.4,1.2-2.1,3.1-2.1,5.6c0,2.3,0.6,4.1,1.8,5.3c1.2,1.2,2.8,1.9,4.7,1.9
		c1.2,0,2.3-0.3,3.3-0.8c1-0.6,1.8-1.4,2.3-2.4c0.5-1,0.8-2.4,0.8-4.1c0-2.2-0.6-3.9-1.8-5.1C302.5,219.9,300.9,219.2,299,219.2z
		 M299,221.8c1,0,1.8,0.4,2.4,1.1c0.7,0.8,1,1.9,1,3.4c0,1.6-0.3,2.8-1,3.6c-0.7,0.8-1.5,1.1-2.4,1.1c-1,0-1.8-0.4-2.5-1.1
		c-0.7-0.8-1-1.9-1-3.5c0-1.6,0.3-2.7,1-3.5C297.2,222.2,298,221.8,299,221.8z"/>
	<path class="st7" d="M319.1,226.9c0,1.1-0.1,1.9-0.3,2.4c-0.2,0.5-0.6,0.9-1.1,1.2c-1,0.6-2.3,0.6-3.1,0c-0.4-0.3-0.6-0.7-0.7-1.1
		c-0.1-0.4-0.1-1.1-0.1-2.2v-7.6h-2.9v8.4c0,1,0,1.7,0.1,2.1c0.1,0.7,0.4,1.3,0.7,1.8c0.4,0.5,0.9,0.9,1.6,1.2
		c0.7,0.3,1.5,0.5,2.3,0.5c1.5,0,2.7-0.5,3.7-1.5v1.2h2.7v-13.7h-2.9V226.9z"/>
	<path class="st7" d="M336.5,220.4c-0.3-0.2-0.6-0.5-0.9-0.7c-0.7-0.4-1.4-0.5-2.3-0.5c-1.1,0-2.2,0.3-3.1,0.9
		c-0.9,0.6-1.6,1.5-2.1,2.6c-0.4,1.1-0.7,2.3-0.7,3.7c0,1.4,0.3,2.6,0.7,3.7c0.5,1.1,1.2,1.9,2.1,2.5c0.9,0.6,2,0.9,3.1,0.9
		c1.3,0,2.4-0.4,3.3-1.2v0.9h2.8v-18.6h-2.9V220.4z M335.7,222.9c0.6,0.8,0.9,2,0.9,3.7c0,1.5-0.3,2.6-0.9,3.4c-0.6,0.7-1.3,1-2.2,1
		c-0.8,0-1.6-0.4-2.2-1.1c-0.6-0.7-1-1.9-1-3.5c0-1.6,0.3-2.8,0.9-3.5c0.6-0.7,1.3-1.1,2.2-1.1C334.4,221.8,335.1,222.2,335.7,222.9
		z"/>
	<polygon class="st7" points="372.3,222 363.8,222 363.8,214.6 360.7,214.6 360.7,233.3 363.8,233.3 363.8,224.8 372.3,224.8 
		372.3,233.3 375.5,233.3 375.5,214.6 372.3,214.6 	"/>
	<path class="st7" d="M393.5,225.3c-0.2-0.1-0.4-0.3-0.6-0.4c1.3-0.3,2.3-0.8,3-1.6c0.9-0.9,1.3-2.1,1.3-3.5c0-1-0.3-2-0.8-2.9
		c-0.5-0.9-1.3-1.5-2.2-1.9c-0.9-0.3-2.1-0.5-3.8-0.5h-8.3v18.6h3.1v-7.9h2.4c0.7,0,1.1,0,1.2,0.1c0.3,0.1,0.7,0.2,1,0.4
		c0.3,0.2,0.7,0.6,1.1,1.1c0.4,0.6,1,1.4,1.7,2.4l2.5,3.9h3.9l-3.5-5.5C394.9,226.8,394.2,226,393.5,225.3z M393.6,221.3
		c-0.3,0.4-0.7,0.7-1.2,0.9c-0.6,0.2-1.4,0.3-2.4,0.3h-4.7v-5.2h5.3c1.2,0,2.1,0.2,2.7,0.7c0.5,0.5,0.8,1.1,0.8,1.8
		C394,220.4,393.9,220.8,393.6,221.3z"/>
	<path class="st7" d="M429.3,223.1c-0.7-0.3-2.1-0.7-4-1.2c-2.3-0.5-3.1-0.9-3.4-1.2c-0.4-0.3-0.6-0.8-0.6-1.3
		c0-0.6,0.3-1.2,0.8-1.6c0.6-0.5,1.6-0.7,2.9-0.7c1.3,0,2.2,0.3,2.9,0.8c0.6,0.5,1,1.3,1.1,2.3l0,0.4l3-0.2l0-0.4
		c0-1.1-0.4-2.1-0.9-3c-0.6-0.9-1.4-1.6-2.5-2c-1.1-0.4-2.3-0.7-3.7-0.7c-1.2,0-2.4,0.2-3.4,0.6c-1.1,0.4-1.9,1.1-2.4,1.9
		c-0.6,0.8-0.8,1.8-0.8,2.7c0,0.9,0.2,1.7,0.7,2.4c0.5,0.7,1.1,1.3,2.1,1.8c0.7,0.4,1.8,0.7,3.5,1.2c1.6,0.4,2.7,0.7,3.1,0.9
		c0.7,0.3,1.2,0.6,1.4,0.9c0.3,0.4,0.4,0.8,0.4,1.2c0,0.5-0.1,0.9-0.4,1.3c-0.3,0.4-0.8,0.7-1.4,1c-0.6,0.3-1.4,0.4-2.3,0.4
		c-1,0-1.8-0.2-2.6-0.5c-0.7-0.3-1.3-0.7-1.6-1.3c-0.4-0.5-0.6-1.2-0.7-2l0-0.4l-2.9,0.3l0,0.4c0,1.3,0.4,2.4,1,3.4
		c0.7,1,1.6,1.8,2.7,2.3c1.1,0.5,2.6,0.7,4.2,0.7c1.3,0,2.5-0.2,3.6-0.7c1.1-0.5,1.9-1.2,2.5-2.1c0.6-0.9,0.9-1.9,0.9-2.9
		c0-1-0.3-2-0.8-2.8C431.2,224.3,430.4,223.6,429.3,223.1z"/>
	<path class="st7" d="M443.9,219.2c-1.7,0-3.1,0.5-4.3,1.5c-1.4,1.2-2.1,3.1-2.1,5.6c0,2.3,0.6,4.1,1.8,5.3c1.2,1.2,2.8,1.9,4.7,1.9
		c1.2,0,2.3-0.3,3.3-0.8c1-0.6,1.8-1.4,2.3-2.4c0.5-1,0.8-2.4,0.8-4.1c0-2.2-0.6-3.9-1.8-5.1C447.4,219.9,445.8,219.2,443.9,219.2z
		 M443.9,221.8c1,0,1.8,0.4,2.4,1.1c0.7,0.8,1,1.9,1,3.4c0,1.6-0.3,2.8-1,3.5c-0.7,0.8-1.5,1.1-2.4,1.1c-1,0-1.8-0.4-2.5-1.1
		c-0.7-0.8-1-1.9-1-3.5c0-1.6,0.3-2.7,1-3.5C442.1,222.2,442.9,221.8,443.9,221.8z"/>
	<path class="st7" d="M457.7,214.9c-0.6,0.4-1,0.9-1.3,1.6c-0.2,0.5-0.3,1.1-0.3,2.1v1h-1.9v2.5h1.9v11.3h2.9V222h2.5v-2.5h-2.5
		v-0.8c0-0.8,0.2-1.2,0.3-1.3c0.3-0.3,1.3-0.4,2.4-0.2l0.4,0.1l0.5-2.7l-0.4-0.1C460.3,214.1,458.7,214.3,457.7,214.9z"/>
	<path class="st7" d="M471.3,230.5c-0.9,0.1-1.3,0.1-1.5,0c-0.1-0.1-0.2-0.1-0.2-0.3c0,0-0.1-0.3-0.1-1.1V222h2.2v-2.5h-2.2v-4.8
		l-2.9,1.8v3h-1.6v2.5h1.6v7.1c0,1.4,0.1,2.3,0.3,2.7c0.2,0.5,0.6,0.9,1.1,1.2c0.5,0.3,1.2,0.4,2,0.4c0.5,0,1.1-0.1,1.7-0.2l0.4-0.1
		l-0.4-2.7L471.3,230.5z"/>
	<path class="st7" d="M488.1,228.5l-2.3-9h-2.8l-2.1,7.9c-0.1,0.5-0.2,0.9-0.3,1.3l-2.5-9.2h-3.1l4.2,13.7h2.9l2.3-8.8l2.3,8.8h2.8
		l4.3-13.7h-2.9L488.1,228.5z"/>
	<path class="st7" d="M509.5,231.3c-0.1-0.5-0.1-1.8-0.1-3.8v-2.9c0-1,0-1.7-0.1-2.1c-0.1-0.7-0.4-1.2-0.8-1.7
		c-0.4-0.4-0.9-0.8-1.7-1.1c-0.7-0.3-1.7-0.4-2.8-0.4c-1.2,0-2.2,0.2-3.1,0.5c-0.9,0.3-1.6,0.8-2.1,1.4c-0.5,0.6-0.8,1.4-1,2.4
		l-0.1,0.4l2.9,0.4l0.1-0.3c0.2-0.8,0.5-1.4,1-1.7c0.4-0.3,1.1-0.5,2.1-0.5c1,0,1.8,0.2,2.3,0.7c0.3,0.3,0.5,0.8,0.5,1.6
		c0,0.1,0,0.2,0,0.3c-0.8,0.3-2,0.5-3.6,0.7c-0.9,0.1-1.6,0.2-2,0.3c-0.6,0.2-1.2,0.4-1.7,0.8c-0.5,0.4-0.9,0.8-1.3,1.4
		c-0.3,0.6-0.5,1.2-0.5,1.9c0,1.2,0.4,2.2,1.3,2.9c0.8,0.8,2,1.1,3.5,1.1c0.9,0,1.8-0.2,2.6-0.5c0.6-0.2,1.3-0.6,1.9-1.1
		c0.1,0.4,0.2,0.8,0.4,1.1l0.1,0.2h3.2l-0.3-0.6C509.8,232.2,509.6,231.8,509.5,231.3z M506.4,226.9v0.3c0,0.9-0.1,1.6-0.3,2
		c-0.3,0.6-0.7,1-1.3,1.4c-0.6,0.3-1.3,0.5-2.1,0.5c-0.8,0-1.3-0.2-1.7-0.5c-0.4-0.3-0.5-0.7-0.5-1.2c0-0.3,0.1-0.6,0.2-0.8
		c0.2-0.3,0.4-0.4,0.7-0.6c0.3-0.1,1-0.3,1.8-0.4C504.6,227.4,505.6,227.2,506.4,226.9z"/>
	<path class="st7" d="M519.1,219.8c-0.3,0.2-0.5,0.5-0.8,0.8v-1h-2.7v13.7h2.9v-7.2c0-0.9,0.1-1.7,0.3-2.5c0.1-0.4,0.4-0.8,0.7-1
		c0.7-0.5,1.6-0.5,2.5,0.1l0.4,0.2l1-2.7l-0.3-0.2C521.7,219.1,520.2,219,519.1,219.8z"/>
	<path class="st7" d="M536.3,228.6c-0.3,0.9-0.7,1.5-1.2,1.9c-0.5,0.4-1.1,0.6-1.8,0.6c-1,0-1.8-0.3-2.4-1c-0.6-0.6-1-1.5-1.1-2.6
		h9.6l0-0.4c0-0.3,0-0.5,0-0.6c0-2.2-0.6-4-1.7-5.2c-1.2-1.3-2.7-1.9-4.5-1.9c-1.9,0-3.5,0.6-4.6,1.9c-1.2,1.3-1.8,3.1-1.8,5.3
		c0,2.2,0.6,3.9,1.8,5.2c1.2,1.2,2.8,1.9,4.8,1.9c1.6,0,2.9-0.4,3.9-1.2c1-0.8,1.7-1.9,2.1-3.3l0.1-0.4l-3-0.4L536.3,228.6z
		 M529.8,224.8c0.1-0.9,0.4-1.5,1-2.1c0.6-0.6,1.4-0.9,2.3-0.9c1,0,1.8,0.4,2.4,1.1c0.3,0.4,0.6,1,0.7,1.8H529.8z"/>
	<path class="st7" d="M570.7,223.1c-0.7-0.3-2.1-0.7-4-1.2c-2.3-0.5-3.1-0.9-3.4-1.2c-0.4-0.3-0.6-0.8-0.6-1.3
		c0-0.6,0.3-1.2,0.8-1.6c0.6-0.5,1.6-0.7,2.9-0.7c1.3,0,2.3,0.3,2.9,0.8c0.6,0.5,1,1.3,1.1,2.3l0,0.4l3-0.2l0-0.4
		c0-1.1-0.4-2.1-0.9-3c-0.6-0.9-1.4-1.6-2.5-2c-1.1-0.4-2.3-0.7-3.7-0.7c-1.2,0-2.4,0.2-3.4,0.6c-1.1,0.4-1.9,1.1-2.4,1.9
		c-0.6,0.8-0.8,1.8-0.8,2.7c0,0.9,0.2,1.7,0.7,2.4c0.5,0.7,1.1,1.3,2.1,1.8c0.7,0.4,1.9,0.7,3.5,1.2c1.6,0.4,2.7,0.7,3.1,0.9
		c0.7,0.3,1.2,0.6,1.4,0.9c0.3,0.4,0.4,0.8,0.4,1.2c0,0.5-0.1,0.9-0.4,1.3c-0.3,0.4-0.8,0.7-1.4,1c-0.6,0.3-1.4,0.4-2.3,0.4
		c-1,0-1.8-0.2-2.6-0.5c-0.7-0.3-1.3-0.7-1.6-1.3c-0.4-0.5-0.6-1.2-0.7-2l0-0.4l-2.9,0.3l0,0.4c0,1.3,0.4,2.4,1,3.4
		c0.7,1,1.6,1.8,2.7,2.3c1.1,0.5,2.6,0.7,4.2,0.7c1.3,0,2.5-0.2,3.6-0.7c1.1-0.5,1.9-1.2,2.5-2.1c0.6-0.9,0.9-1.9,0.9-2.9
		c0-1-0.3-2-0.8-2.8C572.6,224.3,571.8,223.6,570.7,223.1z"/>
	<path class="st7" d="M585.3,219.2c-1.7,0-3.1,0.5-4.3,1.5c-1.4,1.2-2.1,3.1-2.1,5.6c0,2.3,0.6,4.1,1.8,5.3c1.2,1.2,2.8,1.9,4.7,1.9
		c1.2,0,2.3-0.3,3.3-0.8c1-0.6,1.8-1.4,2.3-2.4c0.5-1,0.8-2.4,0.8-4.1c0-2.2-0.6-3.9-1.8-5.1C588.7,219.9,587.2,219.2,585.3,219.2z
		 M585.3,221.8c1,0,1.8,0.4,2.4,1.1c0.7,0.8,1,1.9,1,3.4c0,1.6-0.3,2.8-1,3.5c-0.7,0.8-1.5,1.1-2.4,1.1c-1,0-1.8-0.4-2.5-1.1
		c-0.7-0.8-1-1.9-1-3.5c0-1.6,0.3-2.7,1-3.5C583.5,222.2,584.3,221.8,585.3,221.8z"/>
	<rect x="597" y="214.6" class="st7" width="2.9" height="18.6"/>
	<path class="st7" d="M614.4,226.9c0,1.1-0.1,1.9-0.3,2.4c-0.2,0.5-0.6,0.9-1.1,1.2c-1,0.6-2.3,0.6-3.1,0c-0.4-0.3-0.6-0.7-0.7-1.1
		c-0.1-0.4-0.1-1.1-0.1-2.2v-7.6H606v8.4c0,1,0,1.7,0.1,2.1c0.1,0.7,0.4,1.3,0.7,1.8c0.4,0.5,0.9,0.9,1.6,1.2
		c0.7,0.3,1.5,0.5,2.3,0.5c1.5,0,2.7-0.5,3.7-1.5v1.2h2.7v-13.7h-2.9V226.9z"/>
	<path class="st7" d="M628.6,230.5c-0.9,0.1-1.3,0.1-1.5,0c-0.1-0.1-0.2-0.1-0.2-0.3c0,0-0.1-0.3-0.1-1.1V222h2.2v-2.5h-2.2v-4.8
		l-2.9,1.8v3h-1.6v2.5h1.6v7.1c0,1.4,0.1,2.3,0.3,2.7c0.2,0.5,0.6,0.9,1.1,1.2c0.5,0.3,1.2,0.4,2,0.4c0.5,0,1.1-0.1,1.7-0.2l0.4-0.1
		l-0.4-2.7L628.6,230.5z"/>
	<rect x="634" y="214.6" class="st7" width="2.9" height="3.3"/>
	<rect x="634" y="219.5" class="st7" width="2.9" height="13.7"/>
	<path class="st7" d="M648.6,219.2c-1.7,0-3.1,0.5-4.3,1.5c-1.4,1.2-2.1,3.1-2.1,5.6c0,2.3,0.6,4.1,1.8,5.3c1.2,1.2,2.8,1.9,4.7,1.9
		c1.2,0,2.3-0.3,3.3-0.8c1-0.6,1.8-1.4,2.3-2.4c0.5-1,0.8-2.4,0.8-4.1c0-2.2-0.6-3.9-1.8-5.1C652.1,219.9,650.5,219.2,648.6,219.2z
		 M648.6,221.8c1,0,1.8,0.4,2.4,1.1c0.7,0.8,1,1.9,1,3.4c0,1.6-0.3,2.8-1,3.5c-0.7,0.8-1.5,1.1-2.4,1.1c-1,0-1.8-0.4-2.5-1.1
		c-0.7-0.8-1-1.9-1-3.5c0-1.6,0.3-2.7,1-3.5C646.8,222.2,647.6,221.8,648.6,221.8z"/>
	<path class="st7" d="M670.8,220.9c-0.4-0.5-0.9-0.9-1.6-1.2c-0.7-0.3-1.5-0.5-2.3-0.5c-1.5,0-2.8,0.5-3.8,1.5v-1.2h-2.7v13.7h2.9
		v-7.5c0-1.5,0.3-2.6,0.9-3.1c0.6-0.5,1.3-0.8,2.2-0.8c0.5,0,1,0.1,1.3,0.3c0.4,0.2,0.6,0.5,0.8,0.9c0.2,0.4,0.2,1,0.2,1.9v8.3h2.9
		v-8.3c0-1,0-1.8-0.1-2.2C671.4,222,671.2,221.4,670.8,220.9z"/>
	<path class="st7" d="M687.9,227c-0.4-0.6-0.9-1-1.6-1.3c-0.6-0.3-1.7-0.6-3.3-1c-1.3-0.4-1.8-0.5-1.9-0.5c-0.3-0.1-0.5-0.3-0.7-0.5
		c-0.1-0.2-0.2-0.3-0.2-0.5c0-0.3,0.2-0.6,0.5-0.9c0.4-0.3,1-0.4,1.9-0.4c0.8,0,1.4,0.2,1.8,0.5c0.4,0.3,0.6,0.7,0.7,1.3l0.1,0.4
		l2.9-0.4l-0.1-0.4c-0.1-0.9-0.4-1.6-0.8-2.2c-0.4-0.6-1-1-1.9-1.3c-0.8-0.3-1.8-0.5-2.8-0.5c-0.7,0-1.4,0.1-2,0.3
		c-0.6,0.2-1.1,0.4-1.5,0.7c-0.5,0.4-0.9,0.8-1.2,1.4c-0.3,0.5-0.4,1.1-0.4,1.8c0,0.7,0.2,1.4,0.5,1.9c0.4,0.6,0.9,1,1.6,1.4
		c0.6,0.3,1.8,0.7,3.4,1.1c1.4,0.4,2,0.6,2.1,0.7c0.3,0.2,0.5,0.5,0.5,0.9c0,0.4-0.2,0.8-0.6,1.2c-0.4,0.4-1.1,0.5-2,0.5
		c-0.9,0-1.6-0.2-2.1-0.6s-0.8-1-0.9-1.8l-0.1-0.4l-2.9,0.5l0.1,0.4c0.3,1.5,0.9,2.6,1.8,3.3c0.9,0.8,2.3,1.1,4.1,1.1
		c1.1,0,2-0.2,2.9-0.6c0.9-0.4,1.5-0.9,2-1.6s0.7-1.5,0.7-2.3C688.4,228.3,688.2,227.5,687.9,227z"/>
</g>
</svg>
