<svg xmlns="http://www.w3.org/2000/svg" width="17.744" height="20.501" viewBox="0 0 17.744 20.501"><defs><style>.a{fill:#fff;}</style></defs><g transform="translate(-20.595)"><g transform="translate(20.595)"><path class="a" d="M37.275,0H21.659A1.067,1.067,0,0,0,20.6,1.064V19.437A1.067,1.067,0,0,0,21.659,20.5H37.275a1.074,1.074,0,0,0,1.064-.78V1.348C38.339.479,37.86,0,37.275,0ZM26.009,17.562a.569.569,0,0,1-.568.568h-2.6a.569.569,0,0,1-.568-.568V15.3a.569.569,0,0,1,.568-.568h2.6a.569.569,0,0,1,.568.568Zm0-4.775a.569.569,0,0,1-.568.568h-2.6a.569.569,0,0,1-.568-.568V10.53a.569.569,0,0,1,.568-.568h2.6a.569.569,0,0,1,.568.568Zm5.183,4.775a.569.569,0,0,1-.568.568h-2.6a.569.569,0,0,1-.568-.568V15.3a.569.569,0,0,1,.568-.568h2.6a.569.569,0,0,1,.568.568Zm0-4.775a.569.569,0,0,1-.568.568h-2.6a.569.569,0,0,1-.568-.568V10.53a.569.569,0,0,1,.568-.568h2.6a.569.569,0,0,1,.568.568Zm5.526,4.775a.569.569,0,0,1-.568.568H33.479a.569.569,0,0,1-.568-.568V10.53a.569.569,0,0,1,.568-.568H36.15a.569.569,0,0,1,.568.568Zm.02-10.993a.711.711,0,0,1-.709.709H22.905a.711.711,0,0,1-.709-.709V3.206a.712.712,0,0,1,.709-.709H36.029a.711.711,0,0,1,.709.709V6.568Z" transform="translate(-20.595)"/></g></g></svg>