<svg xmlns="http://www.w3.org/2000/svg" width="17.656" height="21.73" viewBox="0 0 17.656 21.73"><defs><style>.a{fill:#919aa3;}</style></defs><g transform="translate(-70.616)"><g transform="translate(70.616)"><g transform="translate(0)"><path class="a" d="M82.839,19.014a.679.679,0,0,0,.679-.679V10.186a.679.679,0,1,0-1.358,0v8.149A.679.679,0,0,0,82.839,19.014Zm4.074-16.3H82.839V1.358A1.358,1.358,0,0,0,81.481,0H77.407a1.358,1.358,0,0,0-1.358,1.358V2.716H71.974a1.358,1.358,0,0,0-1.358,1.358V5.433a1.358,1.358,0,0,0,1.358,1.358V19.014A2.716,2.716,0,0,0,74.69,21.73H84.2a2.716,2.716,0,0,0,2.716-2.716V6.791a1.358,1.358,0,0,0,1.358-1.358V4.074A1.358,1.358,0,0,0,86.913,2.716Zm-9.507-.679a.679.679,0,0,1,.679-.679H80.8a.679.679,0,0,1,.679.679v.679H77.407Zm8.149,16.977A1.358,1.358,0,0,1,84.2,20.372H74.69a1.358,1.358,0,0,1-1.358-1.358V6.791H85.555Zm.679-13.581H72.653a.679.679,0,0,1,0-1.358H86.234a.679.679,0,0,1,0,1.358ZM76.049,19.014a.679.679,0,0,0,.679-.679V10.186a.679.679,0,1,0-1.358,0v8.149A.679.679,0,0,0,76.049,19.014Zm3.4,0a.679.679,0,0,0,.679-.679V10.186a.679.679,0,1,0-1.358,0v8.149A.679.679,0,0,0,79.444,19.014Z" transform="translate(-70.616)"/></g></g></g></svg>