<svg xmlns="http://www.w3.org/2000/svg" width="20" height="20" viewBox="0 0 20 20">
  <path id="content-writing" d="M20,19.219a.781.781,0,0,1-.781.781H10a.781.781,0,0,1,0-1.562h9.219A.781.781,0,0,1,20,19.219Zm-.781-3.854H13.073a.781.781,0,0,0,0,1.562h6.146a.781.781,0,0,0,0-1.562Zm0-3.073H16.146a.781.781,0,0,0,0,1.562h3.073a.781.781,0,0,0,0-1.562Zm.552-6.349L5.943,19.771A.781.781,0,0,1,5.391,20H.781A.781.781,0,0,1,0,19.219V14.61a.781.781,0,0,1,.229-.552L14.057.229a.781.781,0,0,1,1.1,0l4.609,4.609a.781.781,0,0,1,0,1.1Zm-1.657-.552-3.5-3.5L1.562,14.933v3.5h3.5Zm0,0" transform="translate(0 0)" fill="#0078ff"/>
</svg>
